# xmcd
#
# Track frame offsets:
#  150
#  20727
#  49279
#  67137
#  89360
#  115262
#  143039
#  169216
#
# Disc length: 2573 seconds
#
# Revision: 0
# Processed by: cddbd v1.5.2PL0 Copyright (c) Steve Scherf et al.
# Submitted via: Collectorz.com_Music_Collector 6.11
#
DISCID=740a0b08
DTITLE=Matt Taylor - Walk On
DYEAR=2007
DGENRE=Blues
TTITLE0=Radio City Blues
TTITLE1=Two Strong Arms
TTITLE2=Walk On
TTITLE3=Mad With The World
TTITLE4=Fat Tuesday's Blues
TTITLE5=Supernatural
TTITLE6=Worried Life Blues
TTITLE7=Get Outta My Way
EXTD=
EXTT0=
EXTT1=
EXTT2=
EXTT3=
EXTT4=
EXTT5=
EXTT6=
EXTT7=
PLAYORDER=
